<svg aria-hidden="true" style="position:absolute;width:0;height:0;overflow:hidden" xmlns="http://www.w3.org/2000/svg"><defs><symbol id="icon-logo-cub" viewBox="0 0 57 32"><path fill="#afb1b8" style="fill:var(--color1, #afb1b8)" d="M28 14v-3h2l1 1h-1v-1h-1v3h1v-1h1v1h-1l-1 1-1-1zm4 0v-3h2l1 1v1l-1 1-1 1-1-1zm2 0v-3h-1v3a1 1 0 0 0 1 0zm2-3h1v3l1-3h1v4h-1v-3 3h-1l-1-3v3-4zm4 0h2l1 1-1 1h-1v2h-1v-4zm2 1v-1h-1v1h1zm2-1h1l1 4h-1v-1h-1v1h-1l1-4zm1 2v-1l-1 1h1zm2-2 2 2v-2h1v4h-1l-1-3v3h-1v-4zm4 2-1-2h1l1 1v-1h1l-1 2v2h-1v-2zm-21 4h-1v2-2h1zm2 2-1-1h-1v1l1-2 1 2zm-1-1v-1 1zm3 1v-1h1v1a2 2 0 0 1-1 0h-1v-2a2 2 0 0 1 1 0 1 1 0 0 1 1 0h-2v2a1 1 0 0 0 1 0zm3 0h-1v-2h1v2zm2 0h-1v-2h1v2zm1-2 1 1v-1h1v2h-1l-1-2v2h-1v-2h1zm4 0h-1v1h1-1v1h-1v-2h2zM11 5l14 3v12l-14-3V5zm0-1v13l15 4V7L11 4z"/><path fill="#afb1b8" style="fill:var(--color1, #afb1b8)" d="M19 27 3 23V10l16 4v13z"/><path fill="#afb1b8" style="fill:var(--color1, #afb1b8)" d="m11 4 13 4-5 5-14-3 6-6zm0 0-8 6 16 4 7-7-15-3zm9 22 6-5-6-2v7z"/></symbol><symbol id="icon-logo-elips" viewBox="0 0 57 32"><path fill="#afb1b8" style="fill:var(--color1, #afb1b8)" d="M19 26h1l-1 1h-1v-1a1 1 0 0 1 0-1 2 2 0 0 1 1 0h1-2v1h1zm4 0h-1v1h-1v-2h1l1 1zm-1 0v-1h-1v1h1zm3 0 1-1-1 1-1-1v2-2h1v1zm3 0v1-2h1v1h-1zm0 0h1v-1h-1v1zm4 1h-1v-1h-1v1-2h1l1 2zm-2-1h1v-1l-1 1zm3-1 1 1v-1h1v2h-1l-1-2v2-2zm4 1v1h-1v-2 1a1 1 0 0 1 1 0zm-12-5c2 0 4-1 5-3l2-5-2-2-1 6-4 4z"/><path fill="#afb1b8" style="fill:var(--color1, #afb1b8)" d="M24 21c2-1 4-2 4-4l1-7-3-3 1 6c0 3-1 6-3 8zm11-6-4 5-2 1 4-2 3-3-1-1z"/><path fill="#afb1b8" style="fill:var(--color1, #afb1b8)" d="m34 14-1-1c0 2-2 4-3 5l-4 3h2l4-2 2-5zm-9-8-3-1c-2 0-3 1-4 3l-2 5 2 5c1 2 3 3 5 3 3-2 4-4 4-7l-2-8zm14 8-3-6a11 11 0 0 0-10-2l12 12 1-4z"/></symbol><symbol id="icon-facebook-g" viewBox="0 0 32 32"><path fill="#afb1b8" style="fill:var(--color1, #afb1b8)" d="M21 5h3V0h-5c-3 0-6 3-6 8v5H8v5h5v14h6V18h3l2-5h-5V8l2-3z"/></symbol><symbol id="icon-astronaut" viewBox="0 0 32 32"><path fill="#2196f3" style="fill:var(--color2, #2196f3)" d="M32 5V4h-2l-1-2h-1l-1 2h-2a1 1 0 0 0 0 1l1 1v2a1 1 0 0 0 1 1l1-1 2 1 1-1V6l1-1zm-2 1h-1l1 1h-3V6l-1-1h2V4l1 1h1v1zm-4 15h-1 1zm0 2h-1v1h1v-1zm1-2h-1v2h1v-2zm-2 0h-1v2h1v-2zm-3 6h-1 1zm0 1h-1v2h1v-2zm1-1h-1v1h1v-1zm-2 0h-1v1h1v-1zm-5-3h-1v1h1v-1zm0 3h-1 1zm1-2h-1v2h1v-2zm-2 0h-1v2h1v-2zM6 6H5v1h1V6zm0 2H5v1h1V8zm1-1H6v1h1V7zM5 7H4v1h1V7z"/><path fill="#212121" style="fill:var(--color3, #212121)" d="m25 14-2-1-1 1-1 1-2 1h-1a7 7 0 0 0-3-14 7 7 0 0 0-6 11H6l-3 2-2 1a2 2 0 1 0 2 3l1-1 2-1h2l-7 7a2 2 0 0 0 0 2 2 2 0 0 0 2 0l2-1 1-2 1 1-3 3a2 2 0 0 0 0 3 2 2 0 0 0 2 0l5-5 5-5h4l3-2 2-2v-2zM2 18H1a1 1 0 0 1 0-2h2v1l-1 1zm3-2-1 1v-1l1-1v1zm16-7-1 3-4-2-1-1 1-5c3 1 5 3 5 5zM9 9a6 6 0 0 1 7-5l-2 4-2 2a2 2 0 0 0 4 1l4 2A6 6 0 0 1 9 9zm6 1-1 1-1-1 1-1 1 1zM2 25v-1l1-1v1l-1 1zm3 4v-1l1-1 1 1-2 1zm4-3-2 1H6l2-2v-1l-2-2-2 1-1-1 3-2 4 5-1 1zm7-8v1l-5 5-5-4 3-4H7v-2h3a7 7 0 0 0 6 2l3 1v2l-3-1zm4 1v-2l1-1 1 1-2 2zm4-3h-1l-1-1h1a1 1 0 0 1 1 1z"/><path fill="#212121" style="fill:var(--color3, #212121)" d="m14 19-3-3-2 3 2 2 3-2zm-3 1-1-1 1-2 1 2-1 1zm6-15v1s2 0 2 2h1c0-2-2-3-3-3zm3 4h-1v2h1V9z"/></symbol><symbol id="icon-antenna" viewBox="0 0 32 32"><path fill="#212121" style="fill:var(--color3, #212121)" d="m31 22-9-8 1-5h1a2 2 0 1 0-2-1h-5L9 0H8L7 2v1l-1 7c0 4 1 8 4 11v7H4c-2 0-3 1-3 3v1h26v-1c0-2-1-3-3-3h-6v-3h2c3 0 6 0 8-2v1l1 1 2-2v-1zM23 6h1a1 1 0 0 1 0 2 1 1 0 0 1-1-2zm-1 4-1 3-1-2 2-1zm-1-1-1 2-2-2h3zm3 20 2 2H2l2-2h20zm-8-2v1h-5v-1h5zm-5-1v-5c0-1 1-2 3-2s2 1 2 2v5h-5zm7-2v-3c0-1-2-3-4-3s-3 1-3 2C6 16 5 9 8 4l19 19c-3 1-6 2-9 1zm11-1-1-1L8 2l1-1 21 21-1 1z"/><path fill="#2196f3" style="fill:var(--color2, #2196f3)" d="M14 20a2 2 0 0 0 0 3 2 2 0 1 0 0-3zm0 2a1 1 0 0 1 0-1 1 1 0 0 1 0 1z"/></symbol><symbol id="icon-clock" viewBox="0 0 32 32"><path fill="#212121" style="fill:var(--color3, #212121)" d="M31 15a15 15 0 1 0-20 15h1v-1l4-12a2 2 0 1 0-1-3l-5-5a1 1 0 1 0-1 1l5 5 1 2-4 11a14 14 0 1 1 11 0h-1v-2a1 1 0 1 0-1 0l-4 3a1 1 0 1 0 0 2l5 1a1 1 0 1 0 1-1v-2c5-2 9-8 9-14zm-15 0a1 1 0 1 1 0 1 1 1 0 1 1 0-1zm2 15 2-3 1 4-3-1z"/><path fill="#2196f3" style="fill:var(--color2, #2196f3)" d="M16 3v2-2zM4 15a1 1 0 1 0 0 1h1a1 1 0 1 0 0-1H4zm24 1a1 1 0 1 0 0-1h-1a1 1 0 1 0 0 1h1z"/></symbol><symbol id="icon-diagram" viewBox="0 0 32 32"><path fill="#2196f3" style="fill:var(--color2, #2196f3)" d="M15 15h1v5h-1v-5zm4 2h1v3h-1v-3zm-8 2h1v1h-1v-1zm-4-1h2v2H7v-2z"/><path fill="#212121" style="fill:var(--color3, #212121)" d="M1 28h26l2-1v-2l-2-2V10l3-3a2 2 0 1 0-1-1l-2 2V7l-2-2H4L2 7v16H1l-1 2v2l1 1zM30 5v1-1zM3 7l1-1h21l1 1v2l-1 1V8l-1-1H5L4 8v13l1 1h19l1-1v-9l1-1v12H3V7zm5 7a2 2 0 1 0 1 2l2 1 5-4 3 3h1l3-3v8H5V9h18v2l-3 4-4-3h-1l-4 4h-1l-2-2zm1 2a1 1 0 1 1-2 0 1 1 0 1 1 2 0zm3 8h5v1h-5v-1zM1 25v-1h10v1l1 1h4l2-1v-1h9l1 1v2H1v-2z"/></symbol><symbol id="icon-envelope" viewBox="0 0 43 32"><path fill="#757575" style="fill:var(--color4, #757575)" d="M40 0H5L0 5v24l5 3h35l3-3V5l-3-5zm0 3L21 19 3 3h37zm0 26H3V5l18 16L40 5v24z"/></symbol><symbol id="icon-facebook-w" viewBox="0 0 32 32"><path fill="#fff" style="fill:var(--color5, #fff)" d="M21 5h3V0h-5c-3 0-6 3-6 8v5H8v5h5v14h6V18h3l2-5h-5V8l2-3z"/></symbol><symbol id="icon-instagram-w" viewBox="0 0 32 32"><path fill="#fff" style="fill:var(--color5, #fff)" d="M32 10V5l-3-2-2-1-5-2L4 2h1L2 5l-2 5 2 18v-1l3 3 5 2 18-2h-1l5-3V9v1zm-3 12v4l-3 3H6l-3-3V6l3-3h20l3 3v17-1z"/><path fill="#fff" style="fill:var(--color5, #fff)" d="M16 8a8 8 0 0 0 0 16 8 8 0 0 0 0-16zm0 13a5 5 0 1 1 0-10 5 5 0 1 1 0 10zM27 8a2 2 0 0 1-5 0 2 2 0 0 1 5 0z"/></symbol><symbol id="icon-instagram-g" viewBox="0 0 32 32"><path fill="#afb1b8" style="fill:var(--color1, #afb1b8)" d="M32 10V5l-3-2-2-1-5-2L4 2h1L2 5l-2 5 2 18v-1l3 3 5 2 18-2h-1l5-3V9v1zm-3 12v4l-3 3H6l-3-3V6l3-3h20l3 3v17-1z"/><path fill="#afb1b8" style="fill:var(--color1, #afb1b8)" d="M16 8a8 8 0 0 0 0 16 8 8 0 0 0 0-16zm0 13a5 5 0 1 1 0-10 5 5 0 1 1 0 10zM27 8a2 2 0 0 1-5 0 2 2 0 0 1 5 0z"/></symbol><symbol id="icon-linkedin-w" viewBox="0 0 32 32"><path fill="#fff" style="fill:var(--color5, #fff)" d="M32 32V21c0-7-2-11-8-11l-6 3v-2h-7v21h7V21c0-2 1-5 4-5s4 3 4 5v11h6zM0 11h6v21H0V11zM3 0 0 3c0 3 2 5 3 5 3 0 5-2 5-5 0-1-2-3-5-3z"/></symbol><symbol id="icon-linkedin-g" viewBox="0 0 32 32"><path fill="#afb1b8" style="fill:var(--color1, #afb1b8)" d="M32 32V21c0-7-2-11-8-11l-6 3v-2h-7v21h7V21c0-2 1-5 4-5s4 3 4 5v11h6zM0 11h6v21H0V11zM3 0 0 3c0 3 2 5 3 5 3 0 5-2 5-5 0-1-2-3-5-3z"/></symbol><symbol id="icon-logo-cva" viewBox="0 0 57 32"><path fill="#afb1b8" style="fill:var(--color1, #afb1b8)" d="m20 4 4 3h-7v18h18v-7l4 3V4H20zm15 14L25 7h10v11zm-3 4H20V10h1v11h11v1zm-9 5-1 1v-1h-1l1 1v1-1l1-1zm0 2v-1h1l1 1-1-2h-1v2zm1-2v1h-1l1-1zm2 1v1l1-1v1l-1-1 1-1h-1v1zm0 0zm3 0h-1v-1h1-1v2h1v-1zm2 0v-1h-1l-1 1 1 1 1-1zm0-1v1h-1v-1h1z"/></symbol><symbol id="icon-logo-book" viewBox="0 0 57 32"><path fill="#afb1b8" style="fill:var(--color1, #afb1b8)" d="m27 3 2 1V2h-3c-3 0-6 0-8 2v15l7-2h1v-2l-6 2V5l6-2h1zm2 2h1l8-2v15a16 16 0 0 1-10 1V4l1 1zm8 0h-2a18 18 0 0 1-6 1v12h1c3 0 5 0 7-2v1V5zM19 24h-1v4h1a1 1 0 0 0 0-1h-1v-3l1 1a1 1 0 0 0 0-1zm3 0a1 1 0 0 0-1 0v4a1 1 0 0 0 1 0v-4zm0 3h-1v-2l1-1v3zm4 1v-4l-1 2v-2h-1v4h1v-2 1l1-1v2zm3-4h-1v4-2h1a3 3 0 0 0 0-1v-1zm0 1v1h-1v-1h1zm3-1h-1l-1 4h1v-1h1v1h1l-1-4zm-1 2v-1l1 1h-1zm4 0-1-2v2h1v2h1v-4h-1v2zm3-2v2l-1-2 1 2v2-2l1-2h-1zm-20 5v-1 1zm2-1-1 1h1v-1zm2 1h-1 1v-1l-1 1h1zm2-1zm2 0zm2 1-1-1v1h1zm1 0v-1 1zm4 0zm2 0v-1 1zm2 0v-1h-1v1h1zm0 0zm1 0h1v-1h-1v1z"/></symbol><symbol id="icon-logo-rain" viewBox="0 0 57 32"><path fill="#afb1b8" style="fill:var(--color1, #afb1b8)" d="m13 11-2 2 2 2 2-2-2-2zm17 0-2-5-5-1-4 1c-2 1-2 3-2 5v8s13-1 13-8zM6 22l1 3 4 1 3-1 1-3v-6s-9 1-9 6zm5 1h-1v-1H9l1-1h2v1l-1 1zm8-2v2-2zm1 1zm0-1v1h-1v-1h1zm2 1v1h-2v-1l1-1h1v1zm0 0h-1v1h1v-1zm2 1h-1v-1h-1l1-1a1 1 0 0 1 1 0v1h-1 1v1h-2 2zm2-2v2h-1v-2h1zm0 0v1h-1v-1h1zm2 2zm-1-2v2-2zm1 1zm0-1v1h-1v-1h1zm0 0h2v1h-1v1-1 1h-1v-2zm1 2v-1l1 1h-1zm3 0h-1v-1h2-2v1-2h2v2h-1zm3 0zm-1-2v2h-1v-2h1zm1 1zm0-1v1h-1v-1h1zm1 0v2-2zm1 0v1h-2v-1h2zm1 2zm-1-2v2-2zm1 1zm0-1v1h-1v-1h1zm1 0h1l1 1h-1v1h-1v-1h1-1v1-2zm1 2-1-1h1l1 1h-1zm2 0v-1h-1v-1h1l1 1h-1l1 1h-1a1 1 0 0 1-1 0h1z"/></symbol><symbol id="icon-logo-natur" viewBox="0 0 57 32"><path fill="#afb1b8" style="fill:var(--color1, #afb1b8)" d="M14 24v1h-2v-3h2v2zm-2-1h2l-1-1h-1v1zm1 2h1v-1h-2v1h1zm5 0-1-1h-1v1h-1v-3h2l1 1-1 1 1 1zm-2-2h2-1v-1h-1v1zm5 2h-2l1-3h1l1 3h-1zm0-1v-1l-1 1h1zm5 1-2-2v2h-1v-3h1l2 2v-2 3zm4 0h-2v-3h2v1a2 2 0 0 1 0 2zm-1 0 1-2-1-1h-1v3h1zM22 4s9 3 9 8v7s-10-3-9-7V4zm17 14 6-3v-2c-2 1-4 2-6 5z"/><path fill="#afb1b8" style="fill:var(--color1, #afb1b8)" d="M38 18c1-3 4-5 7-6V5s-13 5-13 12v11l2-1v-1c0-3 2-6 4-8z"/><path fill="#afb1b8" style="fill:var(--color1, #afb1b8)" d="M37 22v-2l-2 7 2-1v-4zm0 0v4c4-3 8-6 8-9l-7 2-1 3z"/></symbol><symbol id="icon-smartphone" viewBox="0 0 20 32"><path fill="#757575" style="fill:var(--color4, #757575)" d="M18 0H4L0 4v26l4 2h14l2-2V4l-2-4zM4 2h14v22H2V4l2-2zm14 28H2v-4h16v4z"/><path fill="#757575" style="fill:var(--color4, #757575)" d="M4 28c2 0 2 0 0 0 0 2 0 2 0 0-2 0-2 0 0 0z"/></symbol><symbol id="icon-twitter-w" viewBox="0 0 32 32"><path fill="#fff" style="fill:var(--color5, #fff)" d="M32 6h-3l1-3-3 2a6 6 0 1 0-11 6C10 11 5 8 2 5L1 7c0 3 2 5 4 6H2c0 3 1 5 4 6a6 6 0 0 1-3 0c2 2 3 5 7 5a13 13 0 0 1-10 2l10 3c10 0 19-9 19-19l3-4z"/></symbol><symbol id="icon-twitter-g" viewBox="0 0 32 32"><path fill="#afb1b8" style="fill:var(--color1, #afb1b8)" d="M32 6h-3l1-3-3 2a6 6 0 1 0-11 6C10 11 5 8 2 5L1 7c0 3 2 5 4 6H2c0 3 1 5 4 6a6 6 0 0 1-3 0c2 2 3 5 7 5a13 13 0 0 1-10 2l10 3c10 0 19-9 19-19l3-4z"/></symbol></defs></svg>